# xmcd CD database file
#
# Track frame offsets:
#	150
#	19687
#	34650
#
# Disc length: 706 seconds
#
# Revision: 0
# Processed by: cddbd v1.5PL3 Copyright (c) Steve Scherf et al.
# Submitted via: CDex 1.50
#
DISCID=1802c003
DTITLE=チコチェアー - シナリオ
DYEAR=1900
DGENRE=JPop
TTITLE0=シナリオ
TTITLE1=ムービースター
TTITLE2=ループ
EXTD=
EXTT0=
EXTT1=
EXTT2=
PLAYORDER=
